<svg fill="#000000" xmlns="http://www.w3.org/2000/svg"  viewBox="0 0 50 50" width="100px" height="100px"><path d="M46.792,25.631l-18.068-7.25c-0.561-0.225-1.139-0.393-1.724-0.512v10.046c0,1.105-0.895,2-2,2s-2-0.895-2-2V17.868	c-0.585,0.12-1.162,0.287-1.724,0.512l-18.068,7.25c-1.613,0.647-1.69,2.903-0.124,3.658l15.401,7.426	c4.116,1.985,8.913,1.985,13.029,0l15.401-7.426C48.482,28.533,48.405,26.278,46.792,25.631z M11.5,30C9.567,30,8,29.104,8,28	c0-1.105,1.567-2,3.5-2s3.5,0.895,3.5,2C15,29.104,13.433,30,11.5,30z"/><path d="M32.383,39.515c-2.288,1.104-4.842,1.688-7.383,1.688s-5.095-0.584-7.384-1.688c0,0-10.347-4.998-14.196-6.861	C2.761,32.335,2,32.818,2,33.551l0,2.706c0,0.385,0.221,0.736,0.569,0.902l14.928,7.14c4.745,2.269,10.261,2.269,15.006,0	l14.928-7.14C47.779,36.992,48,36.641,48,36.256l0-2.699c0-0.735-0.764-1.22-1.425-0.899C42.721,34.522,32.383,39.515,32.383,39.515	z"/><circle cx="25" cy="10" r="6"/></svg>