<svg fill="#000000" xmlns="http://www.w3.org/2000/svg"  viewBox="0 0 50 50" width="100px" height="100px"><path fill="none" stroke="#000000" stroke-linecap="round" stroke-linejoin="round" stroke-miterlimit="10" stroke-width="2" d="M22,24c0,0-1.197-2.466-3.766-2.466c-1.728,0-3.234,1.258-3.234,1.258"/><path d="M19.5 26A1.5 2.483 0 1 0 19.5 30.966A1.5 2.483 0 1 0 19.5 26Z"/><path fill="none" stroke="#000000" stroke-linecap="round" stroke-linejoin="round" stroke-miterlimit="10" stroke-width="2" d="M35,22.792c0,0-1.506-1.258-3.234-1.258C29.197,21.534,28,24,28,24"/><path d="M30.5 26A1.5 2.483 0 1 0 30.5 30.966 1.5 2.483 0 1 0 30.5 26zM35.765 32.487c-.908 1.284-2.503 2.059-4.88 2.482C30.343 37.267 27.916 39 25 39c-2.918 0-5.348-1.737-5.886-4.038-4.458-.814-4.854-2.503-4.854-2.503s-.692.518-.692 2.825c0 2.718 2.207 2.856 2.207 2.856s.244 2.633 2.589 2.633c1.013 0 1.603-.416 1.68-.453.132.134 1.189 1.68 2.797 1.68 1.25 0 2.132-.746 2.132-.746s.977.706 2.31.706c1.512 0 2.673-1.613 2.673-1.613s.601.421 1.747.421 2.281-.794 2.569-2.66c.932 0 2.158-1.198 2.158-2.744C36.43 33.046 35.765 32.487 35.765 32.487z"/><path fill="none" stroke="#000000" stroke-miterlimit="10" stroke-width="2" d="M25 29A6 5 0 1 0 25 39 6 5 0 1 0 25 29zM11.146 37.69c-.273.072-.561.121-.846.121-1.967 0-4.701-3.955-4.701-7.68 0-2.451.975-3.777 1.97-3.777 1.124 0 2.979.369 4.336 1.948"/><path d="M39.411,30.884c-0.203-1.21-0.412-2.461-0.412-2.976c0-0.836,0.424-2.515,1.001-3.908h-2c-0.41,1.088-1.001,2.737-1.001,3.908c0,0.681,0.204,1.896,0.439,3.306c0.275,1.646,0.588,3.512,0.588,4.621c0,4.892-3.217,6.33-5.566,7.381c-0.377,0.169-0.717,0.321-0.999,0.469c-0.505,0.264-0.953,0.534-1.387,0.796C28.666,45.329,27.555,46,25,46s-3.666-0.671-5.074-1.52c-0.434-0.262-0.882-0.532-1.387-0.796c-0.282-0.147-0.622-0.3-0.999-0.469c-2.35-1.051-5.566-2.489-5.566-7.381c0-1.109,0.313-2.976,0.588-4.621c0.235-1.409,0.439-2.625,0.439-3.306c0-1.171-0.591-2.82-1.001-3.908h-2c0.577,1.394,1.001,3.072,1.001,3.908c0,0.515-0.209,1.766-0.412,2.976c-0.288,1.723-0.615,3.676-0.615,4.951c0,6.188,4.391,8.151,6.749,9.206c0.336,0.15,0.64,0.285,0.891,0.417c0.466,0.243,0.879,0.493,1.279,0.734C20.434,47.122,21.889,48,25,48s4.566-0.878,6.107-1.808c0.4-0.241,0.813-0.491,1.279-0.734c0.251-0.132,0.555-0.267,0.891-0.417c2.358-1.055,6.749-3.019,6.749-9.206C40.026,34.56,39.699,32.606,39.411,30.884z"/><path fill="none" stroke="#000000" stroke-miterlimit="10" stroke-width="2" d="M38.854,37.69c0.273,0.072,0.561,0.121,0.846,0.121c1.967,0,4.701-3.955,4.701-7.68c0-2.451-0.975-3.777-1.97-3.777c-1.124,0-2.979,0.369-4.336,1.948"/><path d="M25.105,2c-0.028,0-0.056,0.002-0.083,0.003C24.994,2.002,24.966,2,24.938,2C12.512,2,6,15.808,6,20.584c0,2.706,0.633,4.501,1.14,5.512c0.04,0.193,0.134,0.366,0.279,0.507C7.604,26.906,8.024,26.978,8.043,27h4v-3c1.44-1.116,6.328-3.993,12.979-3.999C31.672,20.007,36.56,22.884,38,24v3h4c0.019-0.022,0.439-0.094,0.624-0.397c0.145-0.141,0.239-0.314,0.279-0.507c0.507-1.011,1.14-2.806,1.14-5.512C44.043,15.808,37.531,2,25.105,2z M23.04,4.539L25,6.541v0.044l0.021-0.022l0.021,0.022V6.541l1.96-2.002l2.714,5.341L28.037,11l-1.335-4.307l-1.637,2.025l-0.022-0.025V8.644l-0.021,0.025L25,8.644v0.049l-0.022,0.025l-1.637-2.025L22.006,11l-1.68-1.12L23.04,4.539z M40,24l-1.98,0.007C38.024,24.003,38.906,22.25,39,21c-0.228-1.067-3.606-6.981-13.957-6.998V14c-0.007,0-0.014,0.001-0.021,0.001S25.007,14,25,14v0.002C14.649,14.019,11.271,19.933,11.043,21c0.094,1.25,0.976,3.003,0.98,3.007L10.043,24c-0.05-0.062-1-0.905-1-3c0-1.068,3.376-8.99,15.979-8.999C37.624,12.01,41,19.932,41,21C41,23.095,40.05,23.938,40,24z"/></svg>