<?xml version="1.0" encoding="utf-8"?><svg xmlns="http://www.w3.org/2000/svg" xmlns:xlink="http://www.w3.org/1999/xlink" width="200px" height="200px" viewBox="0 0 100 100" preserveAspectRatio="xMidYMid" style="margin-right:-2px;display:block;background-repeat-y:initial;background-repeat-x:initial;background-color:rgb(255, 255, 255);animation-play-state:paused" ><g transform="rotate(0 50 50)" style="transform:matrix(1, 0, 0, 1, 0, 0);animation-play-state:paused" ><rect x="48.5" y="22.5" rx="0" ry="0" width="3" height="13" fill="#fe718d" opacity="0.0666674" style="opacity:0.0666674;animation-play-state:paused" ></rect></g>
<g transform="rotate(24 50 50)" style="transform:matrix(0.913545, 0.406737, -0.406737, 0.913545, 24.6596, -16.0141);animation-play-state:paused" ><rect x="48.5" y="22.5" rx="0" ry="0" width="3" height="13" fill="#f47e60" opacity="0.133334" style="opacity:0.133334;animation-play-state:paused" ></rect></g>
<g transform="rotate(48 50 50)" style="transform:matrix(0.669131, 0.743145, -0.743145, 0.669131, 53.7007, -20.6138);animation-play-state:paused" ><rect x="48.5" y="22.5" rx="0" ry="0" width="3" height="13" fill="#f8b26a" opacity="0.2" style="opacity:0.2;animation-play-state:paused" ></rect></g>
<g transform="rotate(72 50 50)" style="transform:matrix(0.309017, 0.951057, -0.951057, 0.309017, 82.102, -13.0037);animation-play-state:paused" ><rect x="48.5" y="22.5" rx="0" ry="0" width="3" height="13" fill="#abbd81" opacity="0.266667" style="opacity:0.266667;animation-play-state:paused" ></rect></g>
<g transform="rotate(96 50 50)" style="transform:matrix(-0.104528, 0.994522, -0.994522, -0.104528, 104.953, 5.50033);animation-play-state:paused" ><rect x="48.5" y="22.5" rx="0" ry="0" width="3" height="13" fill="#849b87" opacity="0.333333" style="opacity:0.333333;animation-play-state:paused" ></rect></g>
<g transform="rotate(120 50 50)" style="transform:matrix(-0.5, 0.866025, -0.866025, -0.5, 118.301, 31.6987);animation-play-state:paused" ><rect x="48.5" y="22.5" rx="0" ry="0" width="3" height="13" fill="#6492ac" opacity="0.400001" style="opacity:0.400001;animation-play-state:paused" ></rect></g>
<g transform="rotate(144 50 50)" style="transform:matrix(-0.809017, 0.587785, -0.587785, -0.809017, 119.84, 61.0616);animation-play-state:paused" ><rect x="48.5" y="22.5" rx="0" ry="0" width="3" height="13" fill="#637cb5" opacity="0.466667" style="opacity:0.466667;animation-play-state:paused" ></rect></g>
<g transform="rotate(168 50 50)" style="transform:matrix(-0.978148, 0.207912, -0.207912, -0.978148, 109.303, 88.5118);animation-play-state:paused" ><rect x="48.5" y="22.5" rx="0" ry="0" width="3" height="13" fill="#6a63b6" opacity="0.533334" style="opacity:0.533334;animation-play-state:paused" ></rect></g>
<g transform="rotate(192 50 50)" style="transform:matrix(-0.978148, -0.207912, 0.207912, -0.978148, 88.5118, 109.303);animation-play-state:paused" ><rect x="48.5" y="22.5" rx="0" ry="0" width="3" height="13" fill="#fe718d" opacity="0.6" style="opacity:0.6;animation-play-state:paused" ></rect></g>
<g transform="rotate(216 50 50)" style="transform:matrix(-0.809017, -0.587785, 0.587785, -0.809017, 61.0616, 119.84);animation-play-state:paused" ><rect x="48.5" y="22.5" rx="0" ry="0" width="3" height="13" fill="#f47e60" opacity="0.666667" style="opacity:0.666667;animation-play-state:paused" ></rect></g>
<g transform="rotate(240 50 50)" style="transform:matrix(-0.5, -0.866025, 0.866025, -0.5, 31.6987, 118.301);animation-play-state:paused" ><rect x="48.5" y="22.5" rx="0" ry="0" width="3" height="13" fill="#f8b26a" opacity="0.733334" style="opacity:0.733334;animation-play-state:paused" ></rect></g>
<g transform="rotate(264 50 50)" style="transform:matrix(-0.104528, -0.994522, 0.994522, -0.104528, 5.50033, 104.953);animation-play-state:paused" ><rect x="48.5" y="22.5" rx="0" ry="0" width="3" height="13" fill="#abbd81" opacity="0.800001" style="opacity:0.800001;animation-play-state:paused" ></rect></g>
<g transform="rotate(288 50 50)" style="transform:matrix(0.309017, -0.951057, 0.951057, 0.309017, -13.0037, 82.102);animation-play-state:paused" ><rect x="48.5" y="22.5" rx="0" ry="0" width="3" height="13" fill="#849b87" opacity="0.866667" style="opacity:0.866667;animation-play-state:paused" ></rect></g>
<g transform="rotate(312 50 50)" style="transform:matrix(0.669131, -0.743145, 0.743145, 0.669131, -20.6138, 53.7007);animation-play-state:paused" ><rect x="48.5" y="22.5" rx="0" ry="0" width="3" height="13" fill="#6492ac" opacity="0.933334" style="opacity:0.933334;animation-play-state:paused" ></rect></g>
<g transform="rotate(336 50 50)" style="transform:matrix(0.913545, -0.406737, 0.406737, 0.913545, -16.0141, 24.6596);animation-play-state:paused" ><rect x="48.5" y="22.5" rx="0" ry="0" width="3" height="13" fill="#637cb5" opacity="1" style="animation-play-state:paused" ></rect></g><!-- generated by https://loading.io/ --></svg>